<mxfile host="app.diagrams.net" agent="Mozilla/5.0 (Macintosh; Intel Mac OS X 10_15_7) AppleWebKit/537.36 (KHTML, like Gecko) Chrome/139.0.0.0 Safari/537.36" version="28.1.2">
  <diagram name="Page-1" id="y9Cvj8BAFmGasbmwCtKv">
    <mxGraphModel dx="2477" dy="1048" grid="1" gridSize="10" guides="1" tooltips="1" connect="1" arrows="1" fold="1" page="1" pageScale="1" pageWidth="850" pageHeight="1100" math="0" shadow="0">
      <root>
        <mxCell id="0" />
        <mxCell id="1" parent="0" />
        <mxCell id="HHHlzmBK0X_QqHzT0agj-1" value="" style="shape=mxgraph.networks2.icon;aspect=fixed;fillColor=#008a00;strokeColor=#005700;network2IconShadow=1;network2bgFillColor=none;labelPosition=center;verticalLabelPosition=bottom;align=center;verticalAlign=top;network2Icon=mxgraph.networks2.antenna;network2IconYOffset=0.0004;network2IconW=0.508;network2IconH=0.9997;fontColor=#ffffff;" vertex="1" parent="1">
          <mxGeometry x="-532.7" y="730" width="185.4" height="364.85" as="geometry" />
        </mxCell>
        <mxCell id="HHHlzmBK0X_QqHzT0agj-2" value="" style="image;sketch=0;aspect=fixed;html=1;points=[];align=center;fontSize=12;image=img/lib/mscae/Key.svg;rotation=-90;" vertex="1" parent="1">
          <mxGeometry x="-475.5" y="1140" width="71" height="114.52" as="geometry" />
        </mxCell>
        <mxCell id="HHHlzmBK0X_QqHzT0agj-3" value="&lt;font face=&quot;Times New Roman&quot; style=&quot;font-size: 32px;&quot;&gt;Howe Operator&lt;/font&gt;" style="text;html=1;align=center;verticalAlign=middle;resizable=0;points=[];autosize=1;strokeColor=none;fillColor=none;" vertex="1" parent="1">
          <mxGeometry x="-550" y="1100" width="220" height="50" as="geometry" />
        </mxCell>
        <mxCell id="HHHlzmBK0X_QqHzT0agj-4" value="" style="sketch=0;verticalLabelPosition=bottom;sketch=0;aspect=fixed;html=1;verticalAlign=top;strokeColor=none;fillColor=#000000;align=center;outlineConnect=0;pointerEvents=1;shape=mxgraph.citrix2.mobile;" vertex="1" parent="1">
          <mxGeometry x="190" y="850" width="121.22" height="240" as="geometry" />
        </mxCell>
        <mxCell id="HHHlzmBK0X_QqHzT0agj-5" value="" style="image;sketch=0;aspect=fixed;html=1;points=[];align=center;fontSize=12;image=img/lib/mscae/Key.svg;rotation=-90;" vertex="1" parent="1">
          <mxGeometry x="345" y="940" width="31" height="50" as="geometry" />
        </mxCell>
        <mxCell id="HHHlzmBK0X_QqHzT0agj-6" value="" style="group;rotation=90;fillColor=#e3c800;fontColor=#000000;strokeColor=#000000;" vertex="1" connectable="0" parent="1">
          <mxGeometry x="352" y="906" width="20" height="34" as="geometry" />
        </mxCell>
        <mxCell id="HHHlzmBK0X_QqHzT0agj-7" value="" style="shape=card;whiteSpace=wrap;html=1;size=20;rotation=90;flipV=1;fillColor=#008a00;fontColor=#ffffff;strokeColor=#005700;" vertex="1" parent="HHHlzmBK0X_QqHzT0agj-6">
          <mxGeometry x="-16" y="-16" width="40" height="50" as="geometry" />
        </mxCell>
        <mxCell id="HHHlzmBK0X_QqHzT0agj-8" value="" style="rounded=1;whiteSpace=wrap;html=1;fillColor=#e3c800;fontColor=#000000;strokeColor=#000000;rotation=90;" vertex="1" parent="HHHlzmBK0X_QqHzT0agj-6">
          <mxGeometry width="20" height="25" as="geometry" />
        </mxCell>
        <mxCell id="HHHlzmBK0X_QqHzT0agj-9" value="" style="endArrow=none;html=1;rounded=0;exitX=0;exitY=0.25;exitDx=0;exitDy=0;entryX=1;entryY=0.25;entryDx=0;entryDy=0;fillColor=#e3c800;strokeColor=#000000;" edge="1" parent="HHHlzmBK0X_QqHzT0agj-6" source="HHHlzmBK0X_QqHzT0agj-8" target="HHHlzmBK0X_QqHzT0agj-8">
          <mxGeometry width="50" height="50" relative="1" as="geometry">
            <mxPoint x="-15" y="3" as="sourcePoint" />
            <mxPoint x="35" y="53" as="targetPoint" />
          </mxGeometry>
        </mxCell>
        <mxCell id="HHHlzmBK0X_QqHzT0agj-10" value="" style="endArrow=none;html=1;rounded=0;exitX=0;exitY=0.25;exitDx=0;exitDy=0;entryX=1;entryY=0.25;entryDx=0;entryDy=0;fillColor=#e3c800;strokeColor=#000000;" edge="1" parent="HHHlzmBK0X_QqHzT0agj-6">
          <mxGeometry width="50" height="50" relative="1" as="geometry">
            <mxPoint x="10" y="3" as="sourcePoint" />
            <mxPoint x="10" y="23" as="targetPoint" />
          </mxGeometry>
        </mxCell>
        <mxCell id="HHHlzmBK0X_QqHzT0agj-11" value="" style="endArrow=none;html=1;rounded=0;exitX=0;exitY=0.75;exitDx=0;exitDy=0;entryX=1;entryY=0.75;entryDx=0;entryDy=0;fillColor=#e3c800;strokeColor=#000000;" edge="1" parent="HHHlzmBK0X_QqHzT0agj-6" source="HHHlzmBK0X_QqHzT0agj-8" target="HHHlzmBK0X_QqHzT0agj-8">
          <mxGeometry width="50" height="50" relative="1" as="geometry">
            <mxPoint x="2" y="3" as="sourcePoint" />
            <mxPoint x="3" y="23" as="targetPoint" />
          </mxGeometry>
        </mxCell>
        <mxCell id="HHHlzmBK0X_QqHzT0agj-12" value="" style="endArrow=none;html=1;rounded=0;exitX=0.5;exitY=0;exitDx=0;exitDy=0;entryX=0.5;entryY=1;entryDx=0;entryDy=0;fillColor=#e3c800;strokeColor=#000000;" edge="1" parent="HHHlzmBK0X_QqHzT0agj-6" source="HHHlzmBK0X_QqHzT0agj-8" target="HHHlzmBK0X_QqHzT0agj-8">
          <mxGeometry width="50" height="50" relative="1" as="geometry">
            <mxPoint x="23" y="3" as="sourcePoint" />
            <mxPoint x="23" y="23" as="targetPoint" />
          </mxGeometry>
        </mxCell>
        <mxCell id="HHHlzmBK0X_QqHzT0agj-13" value="" style="shape=mxgraph.networks2.icon;aspect=fixed;fillColor=#76608a;strokeColor=#432D57;network2IconShadow=1;network2bgFillColor=none;labelPosition=center;verticalLabelPosition=bottom;align=center;verticalAlign=top;network2Icon=mxgraph.networks2.antenna;network2IconYOffset=0.0004;network2IconW=0.508;network2IconH=0.9997;fontColor=#ffffff;" vertex="1" parent="1">
          <mxGeometry x="-80" y="1050" width="185.4" height="364.85" as="geometry" />
        </mxCell>
        <mxCell id="HHHlzmBK0X_QqHzT0agj-14" value="&lt;font face=&quot;Times New Roman&quot; style=&quot;font-size: 32px;&quot;&gt;Operator #2&lt;/font&gt;" style="text;html=1;align=center;verticalAlign=middle;resizable=0;points=[];autosize=1;strokeColor=none;fillColor=none;" vertex="1" parent="1">
          <mxGeometry x="-77.30000000000001" y="1420" width="180" height="50" as="geometry" />
        </mxCell>
        <mxCell id="HHHlzmBK0X_QqHzT0agj-15" value="Text" style="text;html=1;align=center;verticalAlign=middle;whiteSpace=wrap;rounded=0;" vertex="1" parent="1">
          <mxGeometry y="1250" width="60" height="30" as="geometry" />
        </mxCell>
        <mxCell id="HHHlzmBK0X_QqHzT0agj-16" value="&lt;font face=&quot;Times New Roman&quot; style=&quot;font-size: 144px;&quot;&gt;?&lt;/font&gt;" style="text;html=1;align=center;verticalAlign=middle;whiteSpace=wrap;rounded=0;" vertex="1" parent="1">
          <mxGeometry x="100" y="1350" width="150" height="130" as="geometry" />
        </mxCell>
        <mxCell id="HHHlzmBK0X_QqHzT0agj-17" value="" style="shape=flexArrow;endArrow=classic;startArrow=classic;html=1;rounded=0;strokeWidth=3;" edge="1" parent="1">
          <mxGeometry width="100" height="100" relative="1" as="geometry">
            <mxPoint x="-90" y="1320" as="sourcePoint" />
            <mxPoint x="-290" y="1130" as="targetPoint" />
          </mxGeometry>
        </mxCell>
        <mxCell id="HHHlzmBK0X_QqHzT0agj-18" value="" style="shape=flexArrow;endArrow=classic;startArrow=classic;html=1;rounded=0;strokeWidth=3;" edge="1" parent="1">
          <mxGeometry width="100" height="100" relative="1" as="geometry">
            <mxPoint x="110" y="1320" as="sourcePoint" />
            <mxPoint x="230" y="1110" as="targetPoint" />
          </mxGeometry>
        </mxCell>
        <mxCell id="HHHlzmBK0X_QqHzT0agj-19" value="&lt;font face=&quot;Times New Roman&quot; style=&quot;font-size: 56px;&quot;&gt;Roaming Agreement&lt;/font&gt;" style="text;html=1;align=center;verticalAlign=middle;whiteSpace=wrap;rounded=0;" vertex="1" parent="1">
          <mxGeometry x="-450" y="1210" width="320" height="210" as="geometry" />
        </mxCell>
      </root>
    </mxGraphModel>
  </diagram>
</mxfile>
